<?xml version="1.0" encoding="UTF-8" standalone="no"?>
<!-- Created with Inkscape (http://www.inkscape.org/) -->

<svg
   xmlns:dc="http://purl.org/dc/elements/1.1/"
   xmlns:cc="http://creativecommons.org/ns#"
   xmlns:rdf="http://www.w3.org/1999/02/22-rdf-syntax-ns#"
   xmlns:svg="http://www.w3.org/2000/svg"
   xmlns="http://www.w3.org/2000/svg"
   xmlns:sodipodi="http://sodipodi.sourceforge.net/DTD/sodipodi-0.dtd"
   xmlns:inkscape="http://www.inkscape.org/namespaces/inkscape"
   width="210mm"
   height="297mm"
   viewBox="0 0 210 297"
   version="1.1"
   id="svg8"
   inkscape:version="0.92.1 r15371"
   sodipodi:docname="logo.svg">
  <defs
     id="defs2">
    <inkscape:perspective
       sodipodi:type="inkscape:persp3d"
       inkscape:vp_x="35.32758 : 115.52585 : 1"
       inkscape:vp_y="0 : 1000 : 0"
       inkscape:vp_z="245.32759 : 115.52585 : 1"
       inkscape:persp3d-origin="140.32759 : 66.025855 : 1"
       id="perspective30" />
  </defs>
  <sodipodi:namedview
     id="base"
     pagecolor="#ffffff"
     bordercolor="#666666"
     borderopacity="1.0"
     inkscape:pageopacity="0.0"
     inkscape:pageshadow="2"
     inkscape:zoom="1"
     inkscape:cx="431.53618"
     inkscape:cy="627.102"
     inkscape:document-units="mm"
     inkscape:current-layer="layer1"
     showgrid="false"
     inkscape:window-width="1920"
     inkscape:window-height="1017"
     inkscape:window-x="2552"
     inkscape:window-y="-8"
     inkscape:window-maximized="1" />
  <metadata
     id="metadata5">
    <rdf:RDF>
      <cc:Work
         rdf:about="">
        <dc:format>image/svg+xml</dc:format>
        <dc:type
           rdf:resource="http://purl.org/dc/dcmitype/StillImage" />
        <dc:title></dc:title>
      </cc:Work>
    </rdf:RDF>
  </metadata>
  <g
     inkscape:label="Livello 1"
     inkscape:groupmode="layer"
     id="layer1">
    <g
       aria-label="incache"
       style="font-style:normal;font-variant:normal;font-weight:normal;font-stretch:normal;font-size:22.00487709px;line-height:1.25;font-family:'Microsoft PhagsPa';-inkscape-font-specification:'Microsoft PhagsPa';letter-spacing:0px;word-spacing:0px;fill:#6c6753;fill-opacity:1;stroke:none;stroke-width:0.5501219"
       id="text12">
      <path
         d="m 70.676471,142.71943 q -0.472761,0 -0.805843,-0.32234 -0.333081,-0.32233 -0.333081,-0.81658 0,-0.49425 0.333081,-0.81659 0.333082,-0.33308 0.805843,-0.33308 0.483506,0 0.816587,0.33308 0.343826,0.32234 0.343826,0.81659 0,0.47276 -0.343826,0.80584 -0.333081,0.33308 -0.816587,0.33308 z m 0.859566,13.79603 h -1.76211 v -11.00244 h 1.76211 z"
         style="font-style:normal;font-variant:normal;font-weight:normal;font-stretch:normal;font-family:'Microsoft PhagsPa';-inkscape-font-specification:'Microsoft PhagsPa';text-align:center;text-anchor:middle;fill:#6c6753;stroke-width:0.5501219"
         id="path142" />
      <path
         d="m 84.236117,156.51546 h -1.762109 v -6.27483 q 0,-3.50273 -2.557208,-3.50273 -1.321582,0 -2.191892,0.99924 -0.859565,0.9885 -0.859565,2.50349 v 6.27483 h -1.76211 v -11.00244 h 1.76211 v 1.82658 h 0.04298 q 1.24637,-2.08445 3.610175,-2.08445 1.805088,0 2.761354,1.17116 0.956267,1.16041 0.956267,3.36305 z"
         style="font-style:normal;font-variant:normal;font-weight:normal;font-stretch:normal;font-family:'Microsoft PhagsPa';-inkscape-font-specification:'Microsoft PhagsPa';text-align:center;text-anchor:middle;fill:#6c6753;stroke-width:0.5501219"
         id="path144" />
      <path
         d="m 95.066643,156.01046 q -1.267859,0.76287 -3.008479,0.76287 -2.353061,0 -3.803577,-1.52573 -1.439773,-1.53648 -1.439773,-3.97549 0,-2.71838 1.557963,-4.3623 1.557962,-1.65466 4.158148,-1.65466 1.450517,0 2.557207,0.53723 v 1.80508 q -1.224881,-0.85956 -2.621674,-0.85956 -1.686898,0 -2.772099,1.21414 -1.074457,1.20339 -1.074457,3.16964 0,1.93403 1.009989,3.05146 1.020734,1.11744 2.729121,1.11744 1.439772,0 2.707631,-0.95627 z"
         style="font-style:normal;font-variant:normal;font-weight:normal;font-stretch:normal;font-family:'Microsoft PhagsPa';-inkscape-font-specification:'Microsoft PhagsPa';text-align:center;text-anchor:middle;fill:#6c6753;stroke-width:0.5501219"
         id="path146" />
      <path
         d="m 105.62855,156.51546 h -1.76211 v -1.71913 h -0.043 q -1.14967,1.977 -3.38454,1.977 -1.643923,0 -2.5787,-0.87031 -0.924033,-0.87031 -0.924033,-2.31009 0,-3.08369 3.631663,-3.58868 l 3.29858,-0.46202 q 0,-2.80433 -2.2671,-2.80433 -1.987745,0 -3.588686,1.35382 v -1.80509 q 1.62243,-1.03148 3.739106,-1.03148 3.87879,0 3.87879,4.10442 z m -1.76211,-5.56569 -2.6539,0.36532 q -1.224885,0.17191 -1.84807,0.61244 -0.623185,0.42978 -0.623185,1.53647 0,0.80584 0.569462,1.32158 0.580206,0.505 1.536473,0.505 1.31084,0 2.15966,-0.91329 0.85956,-0.92403 0.85956,-2.33157 z"
         style="font-style:normal;font-variant:normal;font-weight:normal;font-stretch:normal;font-family:'Microsoft PhagsPa';-inkscape-font-specification:'Microsoft PhagsPa';text-align:center;text-anchor:middle;fill:#6c6753;stroke-width:0.5501219"
         id="path148" />
      <path
         d="m 116.46982,156.01046 q -1.26786,0.76287 -3.00848,0.76287 -2.35306,0 -3.80357,-1.52573 -1.43978,-1.53648 -1.43978,-3.97549 0,-2.71838 1.55797,-4.3623 1.55796,-1.65466 4.15814,-1.65466 1.45052,0 2.55721,0.53723 v 1.80508 q -1.22488,-0.85956 -2.62167,-0.85956 -1.6869,0 -2.7721,1.21414 -1.07446,1.20339 -1.07446,3.16964 0,1.93403 1.00999,3.05146 1.02073,1.11744 2.72912,1.11744 1.43977,0 2.70763,-0.95627 z"
         style="font-style:normal;font-variant:normal;font-weight:normal;font-stretch:normal;font-family:'Microsoft PhagsPa';-inkscape-font-specification:'Microsoft PhagsPa';text-align:center;text-anchor:middle;fill:#6c6753;stroke-width:0.5501219"
         id="path150" />
      <path
         d="m 128.28885,156.51546 h -1.76211 v -6.3393 q 0,-3.43826 -2.55721,-3.43826 -1.28935,0 -2.1704,0.99924 -0.88106,0.9885 -0.88106,2.54647 v 6.23185 h -1.7621 v -16.28877 h 1.7621 v 7.11291 h 0.043 q 1.26786,-2.08445 3.61018,-2.08445 3.71762,0 3.71762,4.48048 z"
         style="font-style:normal;font-variant:normal;font-weight:normal;font-stretch:normal;font-family:'Microsoft PhagsPa';-inkscape-font-specification:'Microsoft PhagsPa';text-align:center;text-anchor:middle;fill:#6c6753;stroke-width:0.5501219"
         id="path152" />
      <path
         d="m 140.46244,151.45477 h -7.76832 q 0.043,1.83732 0.9885,2.83656 0.94552,0.99925 2.60019,0.99925 1.85881,0 3.41677,-1.22488 v 1.65466 q -1.45052,1.05297 -3.83581,1.05297 -2.33157,0 -3.6639,-1.4935 -1.33233,-1.50424 -1.33233,-4.22261 0,-2.56796 1.45052,-4.17964 1.46126,-1.62243 3.62092,-1.62243 2.15966,0 3.34156,1.39679 1.1819,1.3968 1.1819,3.87879 z m -1.80508,-1.4935 q -0.0108,-1.52573 -0.74138,-2.37455 -0.71988,-0.84882 -2.00923,-0.84882 -1.24637,0 -2.11668,0.8918 -0.87031,0.8918 -1.07446,2.33157 z"
         style="font-style:normal;font-variant:normal;font-weight:normal;font-stretch:normal;font-family:'Microsoft PhagsPa';-inkscape-font-specification:'Microsoft PhagsPa';text-align:center;text-anchor:middle;fill:#6c6753;stroke-width:0.5501219"
         id="path154" />
    </g>
    <g
       id="g140"
       transform="translate(-173.20434,-0.26458333)">
      <g
         inkscape:corner7="0.63726995 : 0.12689423 : 0.090556286 : 1"
         inkscape:corner0="0.81180125 : 0.1632691 : 0 : 1"
         inkscape:perspectiveID="#perspective30"
         style="fill:#aa4400"
         id="g32"
         sodipodi:type="inkscape:box3d">
        <path
           points="266.48531,139.022 273.72305,141.05541 273.72305,121.93447 266.48531,118.94537 "
           d="M 266.48531,118.94537 V 139.022 l 7.23774,2.03341 v -19.12094 z"
           inkscape:box3dsidetype="6"
           style="fill:#353564;fill-rule:evenodd;stroke:none;stroke-linejoin:round"
           id="path34"
           sodipodi:type="inkscape:box3dside" />
        <path
           points="280.30814,115.89351 280.30814,136.9459 273.72305,141.05541 273.72305,121.93447 "
           d="m 273.72305,121.93447 6.58509,-6.04096 v 21.05239 l -6.58509,4.10951 z"
           inkscape:box3dsidetype="11"
           style="fill:#e9e9ff;fill-rule:evenodd;stroke:none;stroke-linejoin:round"
           id="path44"
           sodipodi:type="inkscape:box3dside" />
        <path
           points="272.66308,112.25166 280.30814,115.89351 273.72305,121.93447 266.48531,118.94537 "
           d="m 266.48531,118.94537 6.17777,-6.69371 7.64506,3.64185 -6.58509,6.04096 z"
           inkscape:box3dsidetype="5"
           style="fill:#4d4d9f;fill-rule:evenodd;stroke:none;stroke-linejoin:round"
           id="path36"
           sodipodi:type="inkscape:box3dside" />
        <path
           points="272.66308,134.46844 280.30814,136.9459 273.72305,141.05541 266.48531,139.022 "
           d="m 266.48531,139.022 6.17777,-4.55356 7.64506,2.47746 -6.58509,4.10951 z"
           inkscape:box3dsidetype="13"
           style="fill:#afafde;fill-rule:evenodd;stroke:none;stroke-linejoin:round"
           id="path42"
           sodipodi:type="inkscape:box3dside" />
        <path
           points="272.66308,134.46844 280.30814,136.9459 280.30814,115.89351 272.66308,112.25166 "
           d="m 272.66308,112.25166 v 22.21678 l 7.64506,2.47746 v -21.05239 z"
           inkscape:box3dsidetype="14"
           style="fill:#d7d7ff;fill-rule:evenodd;stroke:none;stroke-linejoin:round"
           id="path40"
           sodipodi:type="inkscape:box3dside" />
        <path
           points="272.66308,112.25166 272.66308,134.46844 266.48531,139.022 266.48531,118.94537 "
           d="m 266.48531,118.94537 6.17777,-6.69371 v 22.21678 l -6.17777,4.55356 z"
           inkscape:box3dsidetype="3"
           style="fill:#8686bf;fill-rule:evenodd;stroke:none;stroke-linejoin:round"
           id="path38"
           sodipodi:type="inkscape:box3dside" />
      </g>
      <g
         inkscape:corner7="0.52531992 : 0.14696438 : 0.1609671 : 1"
         inkscape:corner0="0.63726995 : 0.1632691 : 0 : 1"
         inkscape:perspectiveID="#perspective30"
         style="fill:#aa4400"
         id="g78"
         sodipodi:type="inkscape:box3d">
        <path
           points="272.66308,122.21014 285.72036,127.53877 285.72036,118.47172 272.66308,112.25166 "
           d="m 272.66308,112.25166 v 9.95848 l 13.05728,5.32863 v -9.06705 z"
           inkscape:box3dsidetype="6"
           style="fill:#353564;fill-rule:evenodd;stroke:none;stroke-linejoin:round"
           id="path80"
           sodipodi:type="inkscape:box3dside" />
        <path
           points="290.84478,114.27151 290.84478,123.94052 285.72036,127.53877 285.72036,118.47172 "
           d="m 285.72036,118.47172 5.12442,-4.20021 v 9.66901 l -5.12442,3.59825 z"
           inkscape:box3dsidetype="11"
           style="fill:#e9e9ff;fill-rule:evenodd;stroke:none;stroke-linejoin:round"
           id="path90"
           sodipodi:type="inkscape:box3dside" />
        <path
           points="277.36995,107.15169 290.84478,114.27151 285.72036,118.47172 272.66308,112.25166 "
           d="m 272.66308,112.25166 4.70687,-5.09997 13.47483,7.11982 -5.12442,4.20021 z"
           inkscape:box3dsidetype="5"
           style="fill:#4d4d9f;fill-rule:evenodd;stroke:none;stroke-linejoin:round"
           id="path82"
           sodipodi:type="inkscape:box3dside" />
        <path
           points="277.36995,117.84107 290.84478,123.94052 285.72036,127.53877 272.66308,122.21014 "
           d="m 272.66308,122.21014 4.70687,-4.36907 13.47483,6.09945 -5.12442,3.59825 z"
           inkscape:box3dsidetype="13"
           style="fill:#afafde;fill-rule:evenodd;stroke:none;stroke-linejoin:round"
           id="path88"
           sodipodi:type="inkscape:box3dside" />
        <path
           points="277.36995,117.84107 290.84478,123.94052 290.84478,114.27151 277.36995,107.15169 "
           d="m 277.36995,107.15169 v 10.68938 l 13.47483,6.09945 v -9.66901 z"
           inkscape:box3dsidetype="14"
           style="fill:#d7d7ff;fill-rule:evenodd;stroke:none;stroke-linejoin:round"
           id="path86"
           sodipodi:type="inkscape:box3dside" />
        <path
           points="277.36995,107.15169 277.36995,117.84107 272.66308,122.21014 272.66308,112.25166 "
           d="m 272.66308,112.25166 4.70687,-5.09997 v 10.68938 l -4.70687,4.36907 z"
           inkscape:box3dsidetype="3"
           style="fill:#8686bf;fill-rule:evenodd;stroke:none;stroke-linejoin:round"
           id="path84"
           sodipodi:type="inkscape:box3dside" />
      </g>
    </g>
  </g>
</svg>
